 <svg  version="1.0" xmlns="http://www.w3.org/2000/svg"  width="300.000000pt" height="193.000000pt" viewBox="0 0 300.000000 193.000000"  preserveAspectRatio="xMidYMid meet">  <g transform="translate(0.000000,193.000000) scale(0.050000,-0.050000)" fill="#129dde" stroke="none"> <path d="M2060 3489 c-492 -105 -1020 -685 -1020 -1121 0 -29 -14 -54 -35 -61 -949 -321 -916 -1686 46 -1936 180 -47 2810 -46 2970 1 891 262 955 1466 88 1659 -186 41 -209 33 -209 -69 0 -44 -9 -102 -20 -131 -19 -50 -17 -51 67 -51 571 0 670 -842 129 -1092 l-126 -58 -590 0 c-640 0 -699 8 -928 124 -122 62 -318 246 -386 361 -27 47 -58 85 -67 85 -10 0 -13 12 -7 27 6 16 -1 40 -16 55 -29 31 -33 57 -45 288 l-9 160 17 -133 c42 -323 233 -549 530 -626 780 -202 1503 729 1234 1589 -215 691 -901 1083 -1623 929z m575 -279 c1129 -266 1097 -2010 -37 -2010 -566 0 -807 687 -344 980 346 220 789 -114 609 -459 -56 -107 -19 -105 88 7 326 340 52 863 -451 862 -829 -2 -1171 -1181 -528 -1824 l146 -146 -455 0 c-508 0 -589 14 -755 125 -538 362 -360 1189 283 1319 l109 22 0 113 c0 659 671 1167 1335 1011z m-307 -2553 c-10 -16 -4 -20 18 -11 46 17 62 -19 19 -44 -19 -12 -30 -22 -25 -23 63 -13 82 -12 93 6 8 13 4 15 -13 5 -18 -11 -21 -8 -10 10 13 20 25 16 53 -19 20 -25 37 -36 37 -24 0 12 14 16 31 10 39 -15 32 -22 -41 -37 -183 -38 -287 -23 -263 39 7 19 4 28 -7 21 -23 -14 -25 -6 -8 38 7 18 25 32 41 32 17 0 24 -11 17 -25 -6 -14 0 -9 14 10 28 39 67 49 44 12z"/> <path d="M5386 2922 c-87 -54 -113 -111 -99 -214 18 -127 -236 -378 -384 -378 -135 -1 -371 218 -336 311 17 46 14 72 -13 129 -85 178 -341 150 -391 -43 -13 -50 -35 -64 -174 -111 -141 -47 -160 -59 -166 -107 -11 -92 20 -98 197 -39 161 53 165 54 241 20 49 -23 96 -30 131 -21 87 21 309 -206 294 -301 -25 -152 49 -248 189 -248 128 0 205 80 205 214 0 145 259 406 403 406 111 0 189 54 213 146 49 182 -152 335 -310 236z"/> </g> </svg> 